adventprofmm_reg_krn_t2.ufo
<glyph name="parenright" format="1">
  <advance width="146"/>
  <unicode hex="0029"/>
  <outline>
    <contour>
      <point x="13" y="707" type="curve"/>
      <point x="30" y="741" type="line"/>
      <point x="93" y="706"/>
      <point x="125" y="659"/>
      <point x="125" y="568" type="curve" smooth="yes"/>
      <point x="125" y="64" type="line" smooth="yes"/>
      <point x="125" y="-53"/>
      <point x="76" y="-74"/>
      <point x="30" y="-108" type="curve"/>
      <point x="13" y="-74" type="line"/>
      <point x="54" y="-44"/>
      <point x="74" y="-1"/>
      <point x="74" y="56" type="curve" smooth="yes"/>
      <point x="74" y="230"/>
      <point x="74" y="403"/>
      <point x="74" y="577" type="curve" smooth="yes"/>
      <point x="74" y="634"/>
      <point x="54" y="677"/>
    </contour>
  </outline>
</glyph>
<glyph name="three" format="1">
  <advance width="374"/>
  <unicode hex="0033"/>
  <outline>
    <contour>
      <point x="169" y="375" type="curve" smooth="yes"/>
      <point x="167" y="375" type="line"/>
      <point x="312" y="590" type="line"/>
      <point x="312" y="635" type="line"/>
      <point x="49" y="635" type="line"/>
      <point x="49" y="583" type="line"/>
      <point x="250" y="583" type="line"/>
      <point x="75" y="323" type="line"/>
      <point x="175" y="323" type="line" smooth="yes"/>
      <point x="213" y="323"/>
      <point x="245" y="308"/>
      <point x="272" y="279" type="curve" smooth="yes"/>
      <point x="298" y="252"/>
      <point x="311" y="220"/>
      <point x="311" y="181" type="curve" smooth="yes"/>
      <point x="311" y="142"/>
      <point x="298" y="110"/>
      <point x="270" y="82" type="curve" smooth="yes"/>
      <point x="242" y="53"/>
      <point x="208" y="40"/>
      <point x="169" y="40" type="curve" smooth="yes"/>
      <point x="118" y="40"/>
      <point x="79" y="61"/>
      <point x="51" y="102" type="curve"/>
      <point x="9" y="75" type="line"/>
      <point x="44" y="22"/>
      <point x="104" y="-11"/>
      <point x="169" y="-11" type="curve" smooth="yes"/>
      <point x="223" y="-11"/>
      <point x="269" y="8"/>
      <point x="306" y="45" type="curve" smooth="yes"/>
      <point x="343" y="82"/>
      <point x="362" y="128"/>
      <point x="362" y="181" type="curve" smooth="yes"/>
      <point x="362" y="235"/>
      <point x="343" y="281"/>
      <point x="306" y="318" type="curve" smooth="yes"/>
      <point x="269" y="355"/>
      <point x="223" y="375"/>
    </contour>
  </outline>
</glyph>
<glyph name="four" format="1">
  <advance width="412"/>
  <unicode hex="0034"/>
  <outline>
    <contour>
      <point x="336" y="323" type="line"/>
      <point x="384" y="323" type="line"/>
      <point x="402" y="375" type="line"/>
      <point x="336" y="375" type="line"/>
      <point x="336" y="635" type="line"/>
      <point x="285" y="635" type="line"/>
      <point x="285" y="375" type="line"/>
      <point x="85" y="375" type="line"/>
      <point x="227" y="635" type="line"/>
      <point x="174" y="635" type="line"/>
      <point x="-2" y="323" type="line"/>
      <point x="285" y="323" type="line"/>
      <point x="285" y="0" type="line"/>
      <point x="336" y="0" type="line"/>
    </contour>
  </outline>
</glyph>
<glyph name="at" format="1">
  <advance width="630"/>
  <unicode hex="0040"/>
  <outline>
    <contour>
      <point x="614" y="409" type="curve"/>
      <point x="600" y="446" type="line"/>
      <point x="548" y="431"/>
      <point x="533" y="394"/>
      <point x="533" y="330" type="curve" smooth="yes"/>
      <point x="533" y="322"/>
      <point x="533" y="156"/>
      <point x="533" y="147" type="curve" smooth="yes"/>
      <point x="533" y="32"/>
      <point x="419" y="-10"/>
      <point x="305" y="-10" type="curve" smooth="yes"/>
      <point x="166" y="-10"/>
      <point x="71" y="40"/>
      <point x="71" y="172" type="curve" smooth="yes"/>
      <point x="71" y="218"/>
      <point x="71" y="264"/>
      <point x="71" y="310" type="curve" smooth="yes"/>
      <point x="71" y="423"/>
      <point x="147" y="481"/>
      <point x="249" y="481" type="curve" smooth="yes"/>
      <point x="334" y="481"/>
      <point x="392" y="451"/>
      <point x="408" y="402" type="curve"/>
      <point x="358" y="402"/>
      <point x="307" y="402"/>
      <point x="257" y="402" type="curve" smooth="yes"/>
      <point x="190" y="401"/>
      <point x="129" y="368"/>
      <point x="129" y="262" type="curve" smooth="yes"/>
      <point x="129" y="212" type="line" smooth="yes"/>
      <point x="129" y="76"/>
      <point x="218" y="53"/>
      <point x="305" y="55" type="curve" smooth="yes"/>
      <point x="347" y="57"/>
      <point x="455" y="63"/>
      <point x="455" y="63" type="curve"/>
      <point x="455" y="160"/>
      <point x="455" y="256"/>
      <point x="455" y="353" type="curve"/>
      <point x="501" y="353" type="line"/>
      <point x="513" y="402" type="line"/>
      <point x="452" y="402" type="line"/>
      <point x="437" y="468"/>
      <point x="376" y="525"/>
      <point x="246" y="525" type="curve" smooth="yes"/>
      <point x="99" y="525"/>
      <point x="16" y="434"/>
      <point x="16" y="307" type="curve" smooth="yes"/>
      <point x="16" y="264"/>
      <point x="17" y="217"/>
      <point x="17" y="166" type="curve" smooth="yes"/>
      <point x="17" y="10"/>
      <point x="155" y="-60"/>
      <point x="297" y="-60" type="curve" smooth="yes"/>
      <point x="445" y="-60"/>
      <point x="584" y="2"/>
      <point x="584" y="155" type="curve" smooth="yes"/>
      <point x="583" y="345" type="line" smooth="yes"/>
      <point x="583" y="379"/>
      <point x="593" y="400"/>
    </contour>
    <contour>
      <point x="255" y="353" type="curve" smooth="yes"/>
      <point x="308" y="353"/>
      <point x="360" y="353"/>
      <point x="413" y="353" type="curve"/>
      <point x="413" y="108" type="line"/>
      <point x="413" y="108"/>
      <point x="351" y="101"/>
      <point x="286" y="101" type="curve" smooth="yes"/>
      <point x="214" y="101"/>
      <point x="177" y="138"/>
      <point x="177" y="206" type="curve" smooth="yes"/>
      <point x="177" y="259" type="line" smooth="yes"/>
      <point x="177" y="348"/>
      <point x="226" y="353"/>
    </contour>
  </outline>
</glyph>
<glyph name="C" format="1">
  <advance width="351"/>
  <unicode hex="0043"/>
  <outline>
    <contour>
      <point x="304" y="579" type="curve"/>
      <point x="319" y="614" type="line"/>
      <point x="280" y="634"/>
      <point x="236" y="644"/>
      <point x="190" y="644" type="curve" smooth="yes"/>
      <point x="153" y="644"/>
      <point x="120" y="636"/>
      <point x="93" y="621" type="curve" smooth="yes"/>
      <point x="40" y="588"/>
      <point x="14" y="536"/>
      <point x="14" y="457" type="curve" smooth="yes"/>
      <point x="14" y="166" type="line" smooth="yes"/>
      <point x="14" y="90"/>
      <point x="44" y="38"/>
      <point x="88" y="14" type="curve" smooth="yes"/>
      <point x="132" y="-9"/>
      <point x="176" y="-9"/>
      <point x="195" y="-9" type="curve" smooth="yes"/>
      <point x="241" y="-9"/>
      <point x="290" y="1"/>
      <point x="342" y="21" type="curve"/>
      <point x="331" y="63" type="line"/>
      <point x="279" y="45"/>
      <point x="235" y="36"/>
      <point x="199" y="36" type="curve" smooth="yes"/>
      <point x="157" y="36"/>
      <point x="128" y="44"/>
      <point x="107" y="59" type="curve" smooth="yes"/>
      <point x="75" y="82"/>
      <point x="65" y="120"/>
      <point x="65" y="168" type="curve" smooth="yes"/>
      <point x="65" y="465" type="line" smooth="yes"/>
      <point x="65" y="516"/>
      <point x="80" y="552"/>
      <point x="111" y="574" type="curve" smooth="yes"/>
      <point x="134" y="590"/>
      <point x="166" y="598"/>
      <point x="206" y="598" type="curve" smooth="yes"/>
      <point x="237" y="598"/>
      <point x="270" y="592"/>
    </contour>
  </outline>
</glyph>
<glyph name="L" format="1">
  <advance width="352"/>
  <unicode hex="004C"/>
  <outline>
    <contour>
      <point x="347" y="45" type="line"/>
      <point x="71" y="45" type="line"/>
      <point x="71" y="635" type="line"/>
      <point x="20" y="635" type="line"/>
      <point x="20" y="0" type="line"/>
      <point x="347" y="0" type="line"/>
    </contour>
  </outline>
</glyph>
<glyph name="W" format="1">
  <advance width="633"/>
  <unicode hex="0057"/>
  <outline>
    <contour>
      <point x="184" y="63" type="line"/>
      <point x="55" y="635" type="line"/>
      <point x="0" y="635" type="line"/>
      <point x="150" y="0" type="line"/>
      <point x="227" y="0" type="line"/>
      <point x="317" y="543" type="line"/>
      <point x="406" y="0" type="line"/>
      <point x="483" y="0" type="line"/>
      <point x="631" y="635" type="line"/>
      <point x="577" y="635" type="line"/>
      <point x="449" y="63" type="line"/>
      <point x="352" y="635" type="line"/>
      <point x="281" y="635" type="line"/>
    </contour>
  </outline>
</glyph>
<glyph name="bracketright" format="1">
  <advance width="180"/>
  <unicode hex="005D"/>
  <outline>
    <contour>
      <point x="159" y="741" type="line"/>
      <point x="13" y="741" type="line"/>
      <point x="13" y="700" type="line"/>
      <point x="108" y="691" type="line"/>
      <point x="108" y="-54" type="line"/>
      <point x="13" y="-63" type="line"/>
      <point x="13" y="-103" type="line"/>
      <point x="159" y="-103" type="line"/>
    </contour>
  </outline>
</glyph>
<glyph name="n" format="1">
  <advance width="368"/>
  <unicode hex="006E"/>
  <outline>
    <contour>
      <point x="302" y="310" type="curve" smooth="yes"/>
      <point x="302" y="0" type="line"/>
      <point x="352" y="0" type="line"/>
      <point x="352" y="313" type="line" smooth="yes"/>
      <point x="352" y="408"/>
      <point x="294" y="462"/>
      <point x="194" y="462" type="curve" smooth="yes"/>
      <point x="149" y="462"/>
      <point x="103" y="446"/>
      <point x="68" y="423" type="curve"/>
      <point x="68" y="454" type="line"/>
      <point x="17" y="454" type="line"/>
      <point x="17" y="0" type="line"/>
      <point x="68" y="0" type="line"/>
      <point x="68" y="385" type="line"/>
      <point x="105" y="406"/>
      <point x="143" y="416"/>
      <point x="184" y="416" type="curve" smooth="yes"/>
      <point x="242" y="416"/>
      <point x="302" y="392"/>
    </contour>
  </outline>
</glyph>
<glyph name="exclamdown" format="1">
  <advance width="100"/>
  <unicode hex="00A1"/>
  <outline>
    <contour>
      <point x="80" y="33" type="curve" smooth="yes"/>
      <point x="72" y="535" type="line"/>
      <point x="29" y="535" type="line"/>
      <point x="20" y="34" type="line"/>
      <point x="20" y="11"/>
      <point x="30" y="0"/>
      <point x="50" y="0" type="curve" smooth="yes"/>
      <point x="70" y="0"/>
      <point x="80" y="11"/>
    </contour>
    <contour>
      <point x="80" y="613" type="curve" smooth="yes"/>
      <point x="80" y="630"/>
      <point x="67" y="643"/>
      <point x="50" y="643" type="curve" smooth="yes"/>
      <point x="33" y="643"/>
      <point x="19" y="630"/>
      <point x="19" y="613" type="curve" smooth="yes"/>
      <point x="19" y="596"/>
      <point x="33" y="583"/>
      <point x="50" y="583" type="curve" smooth="yes"/>
      <point x="67" y="583"/>
      <point x="80" y="596"/>
    </contour>
  </outline>
</glyph>
<glyph name="overscore" format="1">
  <advance width="340"/>
  <unicode hex="00AF"/>
  <outline>
    <contour>
      <point x="269" y="614" type="line"/>
      <point x="69" y="614" type="line"/>
      <point x="69" y="561" type="line"/>
      <point x="269" y="561" type="line"/>
    </contour>
  </outline>
</glyph>
<glyph name="Adieresis" format="1">
  <advance width="467"/>
  <unicode hex="00C4"/>
  <outline>
    <contour>
      <point x="208" y="635" type="line"/>
      <point x="5" y="0" type="line"/>
      <point x="59" y="0" type="line"/>
      <point x="130" y="222" type="line"/>
      <point x="336" y="222" type="line"/>
      <point x="409" y="0" type="line"/>
      <point x="463" y="0" type="line"/>
      <point x="256" y="635" type="line"/>
    </contour>
    <contour>
      <point x="323" y="272" type="line"/>
      <point x="144" y="272" type="line"/>
      <point x="232" y="556" type="line"/>
    </contour>
    <contour>
      <point x="310" y="758" type="curve" smooth="yes"/>
      <point x="293" y="758"/>
      <point x="280" y="744"/>
      <point x="280" y="728" type="curve" smooth="yes"/>
      <point x="280" y="711"/>
      <point x="293" y="697"/>
      <point x="310" y="697" type="curve" smooth="yes"/>
      <point x="327" y="697"/>
      <point x="340" y="711"/>
      <point x="340" y="728" type="curve" smooth="yes"/>
      <point x="340" y="744"/>
      <point x="327" y="758"/>
    </contour>
    <contour>
      <point x="197" y="728" type="curve" smooth="yes"/>
      <point x="197" y="744"/>
      <point x="183" y="758"/>
      <point x="167" y="758" type="curve" smooth="yes"/>
      <point x="150" y="758"/>
      <point x="136" y="744"/>
      <point x="136" y="728" type="curve" smooth="yes"/>
      <point x="136" y="711"/>
      <point x="150" y="697"/>
      <point x="167" y="697" type="curve" smooth="yes"/>
      <point x="183" y="697"/>
      <point x="197" y="711"/>
    </contour>
  </outline>
</glyph>
<glyph name="Edieresis" format="1">
  <advance width="335"/>
  <unicode hex="00CB"/>
  <outline>
    <contour>
      <point x="321" y="45" type="line"/>
      <point x="71" y="45" type="line"/>
      <point x="71" y="324" type="line"/>
      <point x="227" y="324" type="line"/>
      <point x="244" y="374" type="line"/>
      <point x="71" y="374" type="line"/>
      <point x="71" y="587" type="line"/>
      <point x="323" y="587" type="line"/>
      <point x="323" y="635" type="line"/>
      <point x="20" y="635" type="line"/>
      <point x="20" y="0" type="line"/>
      <point x="321" y="0" type="line"/>
    </contour>
    <contour>
      <point x="274" y="729" type="curve" smooth="yes"/>
      <point x="274" y="746"/>
      <point x="260" y="759"/>
      <point x="243" y="759" type="curve" smooth="yes"/>
      <point x="227" y="759"/>
      <point x="213" y="746"/>
      <point x="213" y="729" type="curve" smooth="yes"/>
      <point x="213" y="712"/>
      <point x="227" y="698"/>
      <point x="243" y="698" type="curve" smooth="yes"/>
      <point x="260" y="698"/>
      <point x="274" y="712"/>
    </contour>
    <contour>
      <point x="130" y="729" type="curve" smooth="yes"/>
      <point x="130" y="746"/>
      <point x="117" y="759"/>
      <point x="100" y="759" type="curve" smooth="yes"/>
      <point x="83" y="759"/>
      <point x="69" y="746"/>
      <point x="69" y="729" type="curve" smooth="yes"/>
      <point x="69" y="712"/>
      <point x="83" y="698"/>
      <point x="100" y="698" type="curve" smooth="yes"/>
      <point x="117" y="698"/>
      <point x="130" y="712"/>
    </contour>
  </outline>
</glyph>
<glyph name="Yacute" format="1">
  <advance width="432"/>
  <unicode hex="00DD"/>
  <outline>
    <contour>
      <point x="413" y="141" type="curve" smooth="yes"/>
      <point x="413" y="635" type="line"/>
      <point x="362" y="635" type="line"/>
      <point x="362" y="384" type="line" smooth="yes"/>
      <point x="362" y="345"/>
      <point x="339" y="308"/>
      <point x="304" y="290" type="curve" smooth="yes"/>
      <point x="279" y="278"/>
      <point x="247" y="272"/>
      <point x="210" y="272" type="curve" smooth="yes"/>
      <point x="170" y="272"/>
      <point x="134" y="282"/>
      <point x="104" y="304" type="curve" smooth="yes"/>
      <point x="75" y="327"/>
      <point x="62" y="359"/>
      <point x="62" y="410" type="curve" smooth="yes"/>
      <point x="62" y="635" type="line"/>
      <point x="11" y="635" type="line"/>
      <point x="11" y="420" type="line" smooth="yes"/>
      <point x="11" y="346"/>
      <point x="29" y="300"/>
      <point x="67" y="268" type="curve" smooth="yes"/>
      <point x="104" y="236"/>
      <point x="155" y="219"/>
      <point x="219" y="222" type="curve" smooth="yes"/>
      <point x="301" y="227"/>
      <point x="345" y="259"/>
      <point x="362" y="277" type="curve"/>
      <point x="362" y="138" type="line" smooth="yes"/>
      <point x="362" y="78"/>
      <point x="344" y="41"/>
      <point x="306" y="27" type="curve"/>
      <point x="318" y="-6" type="line"/>
      <point x="379" y="2"/>
      <point x="413" y="53"/>
    </contour>
    <contour>
      <point x="231" y="771" type="curve" smooth="yes"/>
      <point x="197" y="674" type="line"/>
      <point x="229" y="674" type="line"/>
      <point x="277" y="746" type="line"/>
      <point x="289" y="759"/>
      <point x="287" y="780"/>
      <point x="271" y="789" type="curve" smooth="yes"/>
      <point x="255" y="798"/>
      <point x="237" y="788"/>
    </contour>
  </outline>
</glyph>
<glyph name="germandbls" format="1">
  <advance width="391"/>
  <unicode hex="00DF"/>
  <outline>
    <contour>
      <point x="69" y="0" type="curve"/>
      <point x="69" y="490" type="line" smooth="yes"/>
      <point x="69" y="555"/>
      <point x="95" y="586"/>
      <point x="145" y="586" type="curve" smooth="yes"/>
      <point x="184" y="586"/>
      <point x="206" y="555"/>
      <point x="209" y="523" type="curve" smooth="yes"/>
      <point x="212" y="491"/>
      <point x="195" y="460"/>
      <point x="155" y="460" type="curve"/>
      <point x="141" y="436"/>
      <point x="137" y="414"/>
      <point x="139" y="394" type="curve" smooth="yes"/>
      <point x="144" y="345"/>
      <point x="190" y="306"/>
      <point x="235" y="267" type="curve" smooth="yes"/>
      <point x="282" y="226"/>
      <point x="328" y="185"/>
      <point x="328" y="130" type="curve" smooth="yes"/>
      <point x="328" y="69"/>
      <point x="282" y="40"/>
      <point x="231" y="39" type="curve" smooth="yes"/>
      <point x="195" y="39"/>
      <point x="157" y="52"/>
      <point x="131" y="77" type="curve"/>
      <point x="122" y="62"/>
      <point x="113" y="48"/>
      <point x="104" y="33" type="curve"/>
      <point x="140" y="3"/>
      <point x="191" y="-12"/>
      <point x="239" y="-10" type="curve" smooth="yes"/>
      <point x="313" y="-7"/>
      <point x="381" y="36"/>
      <point x="381" y="128" type="curve" smooth="yes"/>
      <point x="381" y="199"/>
      <point x="330" y="250"/>
      <point x="280" y="294" type="curve" smooth="yes"/>
      <point x="237" y="332"/>
      <point x="195" y="364"/>
      <point x="191" y="399" type="curve" smooth="yes"/>
      <point x="190" y="410"/>
      <point x="192" y="421"/>
      <point x="199" y="432" type="curve"/>
      <point x="198" y="432"/>
      <point x="226" y="432"/>
      <point x="226" y="432" type="curve"/>
      <point x="250" y="452"/>
      <point x="261" y="485"/>
      <point x="259" y="518" type="curve" smooth="yes"/>
      <point x="257" y="577"/>
      <point x="215" y="639"/>
      <point x="140" y="635" type="curve"/>
      <point x="61" y="635"/>
      <point x="18" y="580"/>
      <point x="18" y="487" type="curve" smooth="yes"/>
      <point x="18" y="325"/>
      <point x="18" y="162"/>
      <point x="18" y="0" type="curve"/>
      <point x="35" y="0"/>
      <point x="52" y="0"/>
    </contour>
  </outline>
</glyph>
<glyph name="agrave" format="1">
  <advance width="373"/>
  <unicode hex="00E0"/>
  <outline>
    <contour>
      <point x="307" y="317" type="curve"/>
      <point x="265" y="341"/>
      <point x="207" y="365"/>
      <point x="148" y="365" type="curve" smooth="yes"/>
      <point x="75" y="365"/>
      <point x="9" y="330"/>
      <point x="9" y="228" type="curve" smooth="yes"/>
      <point x="9" y="203"/>
      <point x="9" y="178"/>
      <point x="9" y="153" type="curve" smooth="yes"/>
      <point x="9" y="19"/>
      <point x="98" y="-13"/>
      <point x="215" y="-9" type="curve" smooth="yes"/>
      <point x="260" y="-8"/>
      <point x="358" y="0"/>
      <point x="358" y="0" type="curve"/>
      <point x="358" y="87"/>
      <point x="358" y="174"/>
      <point x="358" y="261" type="curve" smooth="yes"/>
      <point x="358" y="341"/>
      <point x="351" y="404"/>
      <point x="294" y="436" type="curve" smooth="yes"/>
      <point x="256" y="458"/>
      <point x="211" y="461"/>
      <point x="169" y="461" type="curve"/>
      <point x="167" y="422" type="line"/>
      <point x="201" y="422"/>
      <point x="232" y="419"/>
      <point x="255" y="408" type="curve" smooth="yes"/>
      <point x="288" y="393"/>
      <point x="307" y="367"/>
    </contour>
    <contour>
      <point x="307" y="275" type="curve"/>
      <point x="307" y="197"/>
      <point x="307" y="120"/>
      <point x="307" y="42" type="curve"/>
      <point x="307" y="42"/>
      <point x="270" y="38"/>
      <point x="211" y="35" type="curve" smooth="yes"/>
      <point x="90" y="30"/>
      <point x="59" y="73"/>
      <point x="59" y="159" type="curve" smooth="yes"/>
      <point x="59" y="177"/>
      <point x="59" y="205"/>
      <point x="59" y="226" type="curve" smooth="yes"/>
      <point x="59" y="308"/>
      <point x="111" y="322"/>
      <point x="144" y="322" type="curve" smooth="yes"/>
      <point x="202" y="322"/>
      <point x="257" y="299"/>
    </contour>
    <contour>
      <point x="119" y="571" type="curve"/>
      <point x="167" y="500" type="line"/>
      <point x="199" y="500" type="line"/>
      <point x="165" y="597" type="line" smooth="yes"/>
      <point x="159" y="614"/>
      <point x="141" y="624"/>
      <point x="125" y="615" type="curve" smooth="yes"/>
      <point x="109" y="606"/>
      <point x="107" y="585"/>
    </contour>
  </outline>
</glyph>
<glyph name="aring" format="1">
  <advance width="374"/>
  <unicode hex="00E5"/>
  <outline>
    <contour>
      <point x="308" y="317" type="curve"/>
      <point x="266" y="341"/>
      <point x="208" y="365"/>
      <point x="149" y="365" type="curve" smooth="yes"/>
      <point x="76" y="365"/>
      <point x="10" y="330"/>
      <point x="10" y="228" type="curve" smooth="yes"/>
      <point x="10" y="203"/>
      <point x="10" y="178"/>
      <point x="10" y="153" type="curve" smooth="yes"/>
      <point x="10" y="19"/>
      <point x="99" y="-13"/>
      <point x="216" y="-9" type="curve" smooth="yes"/>
      <point x="261" y="-8"/>
      <point x="359" y="0"/>
      <point x="359" y="0" type="curve"/>
      <point x="359" y="87"/>
      <point x="359" y="174"/>
      <point x="359" y="261" type="curve" smooth="yes"/>
      <point x="359" y="341"/>
      <point x="352" y="404"/>
      <point x="295" y="436" type="curve" smooth="yes"/>
      <point x="257" y="458"/>
      <point x="212" y="461"/>
      <point x="170" y="461" type="curve"/>
      <point x="168" y="422" type="line"/>
      <point x="202" y="422"/>
      <point x="233" y="419"/>
      <point x="256" y="408" type="curve" smooth="yes"/>
      <point x="289" y="393"/>
      <point x="308" y="367"/>
    </contour>
    <contour>
      <point x="308" y="275" type="curve"/>
      <point x="308" y="197"/>
      <point x="308" y="120"/>
      <point x="308" y="42" type="curve"/>
      <point x="308" y="42"/>
      <point x="271" y="38"/>
      <point x="212" y="35" type="curve" smooth="yes"/>
      <point x="91" y="30"/>
      <point x="60" y="73"/>
      <point x="60" y="159" type="curve" smooth="yes"/>
      <point x="60" y="177"/>
      <point x="60" y="205"/>
      <point x="60" y="226" type="curve" smooth="yes"/>
      <point x="60" y="308"/>
      <point x="112" y="322"/>
      <point x="145" y="322" type="curve" smooth="yes"/>
      <point x="203" y="322"/>
      <point x="258" y="299"/>
    </contour>
    <contour>
      <point x="172" y="423" type="curve" smooth="yes"/>
      <point x="230" y="423"/>
      <point x="276" y="470"/>
      <point x="276" y="527" type="curve" smooth="yes"/>
      <point x="276" y="584"/>
      <point x="230" y="630"/>
      <point x="172" y="630" type="curve" smooth="yes"/>
      <point x="115" y="630"/>
      <point x="69" y="584"/>
      <point x="69" y="527" type="curve" smooth="yes"/>
      <point x="69" y="470"/>
      <point x="115" y="423"/>
    </contour>
    <contour>
      <point x="236" y="527" type="curve" smooth="yes"/>
      <point x="236" y="492"/>
      <point x="207" y="463"/>
      <point x="172" y="463" type="curve" smooth="yes"/>
      <point x="137" y="463"/>
      <point x="109" y="492"/>
      <point x="109" y="527" type="curve" smooth="yes"/>
      <point x="109" y="562"/>
      <point x="137" y="590"/>
      <point x="172" y="590" type="curve" smooth="yes"/>
      <point x="207" y="590"/>
      <point x="236" y="562"/>
    </contour>
  </outline>
</glyph>
<glyph name="ae" format="1">
  <advance width="648"/>
  <unicode hex="00E6"/>
  <outline>
    <contour>
      <point x="360" y="121" type="curve" smooth="yes"/>
      <point x="360" y="177" type="line"/>
      <point x="636" y="192" type="line"/>
      <point x="636" y="310" type="line" smooth="yes"/>
      <point x="636" y="408"/>
      <point x="574" y="462"/>
      <point x="476" y="462" type="curve" smooth="yes"/>
      <point x="411" y="462"/>
      <point x="363" y="440"/>
      <point x="333" y="397" type="curve"/>
      <point x="299" y="453"/>
      <point x="226" y="461"/>
      <point x="168" y="461" type="curve"/>
      <point x="167" y="448"/>
      <point x="167" y="435"/>
      <point x="166" y="422" type="curve"/>
      <point x="248" y="422"/>
      <point x="306" y="402"/>
      <point x="306" y="317" type="curve"/>
      <point x="264" y="341"/>
      <point x="206" y="365"/>
      <point x="147" y="365" type="curve" smooth="yes"/>
      <point x="74" y="365"/>
      <point x="8" y="330"/>
      <point x="8" y="228" type="curve" smooth="yes"/>
      <point x="8" y="153" type="line" smooth="yes"/>
      <point x="8" y="36"/>
      <point x="77" y="-4"/>
      <point x="172" y="-9" type="curve" smooth="yes"/>
      <point x="193" y="-10"/>
      <point x="346" y="-3"/>
      <point x="357" y="0" type="curve"/>
      <point x="357" y="13" type="line"/>
      <point x="392" y="-10"/>
      <point x="438" y="-11"/>
      <point x="465" y="-11" type="curve" smooth="yes"/>
      <point x="511" y="-10"/>
      <point x="567" y="4"/>
      <point x="613" y="32" type="curve"/>
      <point x="593" y="71" type="line"/>
      <point x="547" y="46"/>
      <point x="509" y="33"/>
      <point x="461" y="33" type="curve" smooth="yes"/>
      <point x="432" y="33"/>
      <point x="360" y="35"/>
    </contour>
    <contour>
      <point x="306" y="275" type="curve"/>
      <point x="306" y="42" type="line"/>
      <point x="306" y="42"/>
      <point x="269" y="38"/>
      <point x="210" y="35" type="curve" smooth="yes"/>
      <point x="89" y="30"/>
      <point x="58" y="73"/>
      <point x="58" y="159" type="curve" smooth="yes"/>
      <point x="58" y="226" type="line" smooth="yes"/>
      <point x="58" y="308"/>
      <point x="110" y="322"/>
      <point x="143" y="322" type="curve" smooth="yes"/>
      <point x="201" y="322"/>
      <point x="256" y="299"/>
    </contour>
    <contour>
      <point x="585" y="316" type="curve" smooth="yes"/>
      <point x="585" y="237" type="line"/>
      <point x="360" y="227" type="line"/>
      <point x="360" y="280" type="line" smooth="yes"/>
      <point x="360" y="376"/>
      <point x="395" y="419"/>
      <point x="475" y="419" type="curve" smooth="yes"/>
      <point x="514" y="419"/>
      <point x="585" y="399"/>
    </contour>
  </outline>
</glyph>
<glyph name="iacute" format="1">
  <advance width="126"/>
  <unicode hex="00ED"/>
  <outline>
    <contour>
      <point x="69" y="454" type="line"/>
      <point x="18" y="454" type="line"/>
      <point x="18" y="0" type="line"/>
      <point x="69" y="0" type="line"/>
    </contour>
    <contour>
      <point x="64" y="592" type="curve" smooth="yes"/>
      <point x="29" y="494" type="line"/>
      <point x="62" y="494" type="line"/>
      <point x="110" y="566" type="line"/>
      <point x="121" y="580"/>
      <point x="120" y="601"/>
      <point x="104" y="610" type="curve" smooth="yes"/>
      <point x="88" y="618"/>
      <point x="69" y="608"/>
    </contour>
  </outline>
</glyph>
<glyph name="uacute" format="1">
  <advance width="365"/>
  <unicode hex="00FA"/>
  <outline>
    <contour>
      <point x="297" y="44" type="curve"/>
      <point x="297" y="0" type="line"/>
      <point x="348" y="0" type="line"/>
      <point x="348" y="454" type="line"/>
      <point x="297" y="454" type="line"/>
      <point x="297" y="156" type="line" smooth="yes"/>
      <point x="297" y="92"/>
      <point x="246" y="40"/>
      <point x="182" y="40" type="curve" smooth="yes"/>
      <point x="124" y="40"/>
      <point x="64" y="62"/>
      <point x="64" y="145" type="curve" smooth="yes"/>
      <point x="64" y="454" type="line"/>
      <point x="13" y="454" type="line"/>
      <point x="13" y="142" type="line" smooth="yes"/>
      <point x="13" y="39"/>
      <point x="70" y="-9"/>
      <point x="171" y="-9" type="curve" smooth="yes"/>
      <point x="216" y="-9"/>
      <point x="266" y="8"/>
    </contour>
    <contour>
      <point x="203" y="590" type="curve"/>
      <point x="169" y="493" type="line"/>
      <point x="201" y="493" type="line"/>
      <point x="249" y="565" type="line"/>
      <point x="260" y="578"/>
      <point x="259" y="599"/>
      <point x="243" y="608" type="curve" smooth="yes"/>
      <point x="227" y="617"/>
      <point x="208" y="607"/>
    </contour>
  </outline>
</glyph>
<glyph name="Dcroat" format="1">
  <advance width="415"/>
  <unicode hex="0110"/>
  <outline>
    <contour>
      <point x="190" y="635" type="curve" smooth="yes"/>
      <point x="19" y="635" type="line"/>
      <point x="19" y="0" type="line"/>
      <point x="208" y="0" type="line" smooth="yes"/>
      <point x="336" y="0"/>
      <point x="400" y="61"/>
      <point x="400" y="181" type="curve" smooth="yes"/>
      <point x="400" y="430" type="line" smooth="yes"/>
      <point x="400" y="554"/>
      <point x="326" y="635"/>
    </contour>
    <contour>
      <point x="193" y="45" type="curve" smooth="yes"/>
      <point x="70" y="45" type="line"/>
      <point x="70" y="589" type="line"/>
      <point x="199" y="589" type="line" smooth="yes"/>
      <point x="305" y="589"/>
      <point x="349" y="522"/>
      <point x="349" y="444" type="curve" smooth="yes"/>
      <point x="349" y="172" type="line" smooth="yes"/>
      <point x="349" y="88"/>
      <point x="297" y="45"/>
    </contour>
    <contour>
      <point x="310" y="728" type="line"/>
      <point x="109" y="728" type="line"/>
      <point x="109" y="675" type="line"/>
      <point x="310" y="675" type="line"/>
    </contour>
  </outline>
</glyph>
<glyph name="emacron" format="1">
  <advance width="353"/>
  <unicode hex="0113"/>
  <outline>
    <contour>
      <point x="64" y="121" type="curve" smooth="yes"/>
      <point x="64" y="177" type="line"/>
      <point x="340" y="192" type="line"/>
      <point x="340" y="310" type="line" smooth="yes"/>
      <point x="340" y="356"/>
      <point x="326" y="393"/>
      <point x="301" y="419" type="curve" smooth="yes"/>
      <point x="273" y="447"/>
      <point x="232" y="462"/>
      <point x="180" y="462" type="curve" smooth="yes"/>
      <point x="135" y="462"/>
      <point x="97" y="451"/>
      <point x="69" y="430" type="curve" smooth="yes"/>
      <point x="34" y="404"/>
      <point x="13" y="362"/>
      <point x="13" y="307" type="curve" smooth="yes"/>
      <point x="13" y="121" type="line" smooth="yes"/>
      <point x="13" y="73"/>
      <point x="28" y="42"/>
      <point x="50" y="22" type="curve" smooth="yes"/>
      <point x="87" y="-12"/>
      <point x="142" y="-11"/>
      <point x="169" y="-11" type="curve" smooth="yes"/>
      <point x="215" y="-10"/>
      <point x="271" y="4"/>
      <point x="317" y="32" type="curve"/>
      <point x="297" y="71" type="line"/>
      <point x="251" y="46"/>
      <point x="209" y="33"/>
      <point x="165" y="33" type="curve" smooth="yes"/>
      <point x="147" y="33"/>
      <point x="110" y="33"/>
      <point x="87" y="57" type="curve"/>
      <point x="73" y="70"/>
      <point x="64" y="90"/>
    </contour>
    <contour>
      <point x="289" y="316" type="curve" smooth="yes"/>
      <point x="289" y="290"/>
      <point x="289" y="263"/>
      <point x="289" y="237" type="curve"/>
      <point x="64" y="227" type="line"/>
      <point x="64" y="253"/>
      <point x="64" y="280"/>
      <point x="64" y="306" type="curve" smooth="yes"/>
      <point x="64" y="344"/>
      <point x="75" y="371"/>
      <point x="95" y="390" type="curve" smooth="yes"/>
      <point x="116" y="409"/>
      <point x="145" y="419"/>
      <point x="179" y="419" type="curve" smooth="yes"/>
      <point x="209" y="419"/>
      <point x="240" y="413"/>
      <point x="268" y="380" type="curve" smooth="yes"/>
      <point x="282" y="363"/>
      <point x="289" y="343"/>
    </contour>
    <contour>
      <point x="277" y="550" type="line"/>
      <point x="76" y="550" type="line"/>
      <point x="76" y="498" type="line"/>
      <point x="277" y="498" type="line"/>
    </contour>
  </outline>
</glyph>
<glyph name="kgreenlandic" format="1">
  <advance width="362"/>
  <unicode hex="0138"/>
  <outline>
    <contour>
      <point x="268" y="106" type="curve" smooth="yes"/>
      <point x="153" y="268" type="line"/>
      <point x="324" y="454" type="line"/>
      <point x="256" y="454" type="line"/>
      <point x="68" y="248" type="line"/>
      <point x="68" y="452" type="line"/>
      <point x="17" y="464" type="line"/>
      <point x="17" y="0" type="line"/>
      <point x="68" y="0" type="line"/>
      <point x="68" y="179" type="line"/>
      <point x="118" y="230" type="line"/>
      <point x="213" y="100" type="line" smooth="yes"/>
      <point x="230" y="77"/>
      <point x="243" y="60"/>
      <point x="252" y="49" type="curve"/>
      <point x="262" y="38"/>
      <point x="276" y="27"/>
      <point x="294" y="15" type="curve" smooth="yes"/>
      <point x="312" y="4"/>
      <point x="332" y="-1"/>
      <point x="353" y="-1" type="curve"/>
      <point x="351" y="43" type="line"/>
      <point x="326" y="43"/>
      <point x="299" y="65"/>
    </contour>
  </outline>
</glyph>
<glyph name="Rcommaaccent" format="1">
  <advance width="429"/>
  <unicode hex="0156"/>
  <outline>
    <contour>
      <point x="180" y="-180" type="curve"/>
      <point x="196" y="-191" type="line"/>
      <point x="214" y="-174"/>
      <point x="244" y="-139"/>
      <point x="244" y="-82" type="curve" smooth="yes"/>
      <point x="244" y="-64"/>
      <point x="230" y="-51"/>
      <point x="214" y="-51" type="curve" smooth="yes"/>
      <point x="197" y="-51"/>
      <point x="183" y="-65"/>
      <point x="183" y="-82" type="curve" smooth="yes"/>
      <point x="183" y="-97"/>
      <point x="194" y="-109"/>
      <point x="209" y="-112" type="curve"/>
      <point x="207" y="-131"/>
      <point x="200" y="-156"/>
    </contour>
    <contour>
      <point x="234" y="635" type="curve" smooth="yes"/>
      <point x="20" y="635" type="line"/>
      <point x="20" y="0" type="line"/>
      <point x="71" y="0" type="line"/>
      <point x="71" y="222" type="line"/>
      <point x="234" y="222" type="line" smooth="yes"/>
      <point x="252" y="222"/>
      <point x="269" y="223"/>
      <point x="284" y="226" type="curve"/>
      <point x="363" y="0" type="line"/>
      <point x="414" y="0" type="line"/>
      <point x="330" y="240" type="line"/>
      <point x="386" y="267"/>
      <point x="414" y="326"/>
      <point x="414" y="429" type="curve" smooth="yes"/>
      <point x="414" y="585"/>
      <point x="349" y="635"/>
    </contour>
    <contour>
      <point x="238" y="272" type="curve" smooth="yes"/>
      <point x="71" y="272" type="line"/>
      <point x="71" y="586" type="line"/>
      <point x="238" y="586" type="line" smooth="yes"/>
      <point x="309" y="586"/>
      <point x="363" y="557"/>
      <point x="363" y="429" type="curve" smooth="yes"/>
      <point x="363" y="291"/>
      <point x="307" y="272"/>
    </contour>
  </outline>
</glyph>
<glyph name="Utilde" format="1">
  <advance width="415"/>
  <unicode hex="0168"/>
  <outline>
    <contour>
      <point x="397" y="168" type="curve" smooth="yes"/>
      <point x="397" y="635" type="line"/>
      <point x="347" y="635" type="line"/>
      <point x="347" y="169" type="line" smooth="yes"/>
      <point x="347" y="127"/>
      <point x="334" y="96"/>
      <point x="312" y="74" type="curve" smooth="yes"/>
      <point x="287" y="49"/>
      <point x="251" y="38"/>
      <point x="207" y="38" type="curve" smooth="yes"/>
      <point x="169" y="38"/>
      <point x="135" y="48"/>
      <point x="111" y="67" type="curve" smooth="yes"/>
      <point x="83" y="89"/>
      <point x="67" y="123"/>
      <point x="67" y="169" type="curve" smooth="yes"/>
      <point x="67" y="635" type="line"/>
      <point x="17" y="635" type="line"/>
      <point x="17" y="168" type="line" smooth="yes"/>
      <point x="17" y="107"/>
      <point x="36" y="62"/>
      <point x="73" y="33" type="curve" smooth="yes"/>
      <point x="111" y="4"/>
      <point x="156" y="-10"/>
      <point x="208" y="-10" type="curve" smooth="yes"/>
      <point x="259" y="-10"/>
      <point x="304" y="4"/>
      <point x="341" y="33" type="curve" smooth="yes"/>
      <point x="378" y="62"/>
      <point x="397" y="107"/>
    </contour>
    <contour>
      <point x="325" y="704" type="curve"/>
      <point x="306" y="747" type="line"/>
      <point x="294" y="737"/>
      <point x="275" y="729"/>
      <point x="258" y="729" type="curve" smooth="yes"/>
      <point x="246" y="729"/>
      <point x="204" y="752"/>
      <point x="160" y="752" type="curve" smooth="yes"/>
      <point x="135" y="752"/>
      <point x="110" y="745"/>
      <point x="89" y="723" type="curve"/>
      <point x="109" y="681" type="line"/>
      <point x="123" y="691"/>
      <point x="133" y="698"/>
      <point x="151" y="699" type="curve" smooth="yes"/>
      <point x="178" y="701"/>
      <point x="218" y="677"/>
      <point x="260" y="677" type="curve" smooth="yes"/>
      <point x="282" y="677"/>
      <point x="304" y="684"/>
    </contour>
  </outline>
</glyph>
<glyph name="uogonek" format="1">
  <advance width="414"/>
  <unicode hex="0173"/>
  <outline>
    <contour>
      <point x="298" y="44" type="curve"/>
      <point x="298" y="0" type="line"/>
      <point x="349" y="0" type="line"/>
      <point x="349" y="454" type="line"/>
      <point x="298" y="454" type="line"/>
      <point x="298" y="156" type="line" smooth="yes"/>
      <point x="298" y="92"/>
      <point x="247" y="40"/>
      <point x="183" y="40" type="curve" smooth="yes"/>
      <point x="125" y="40"/>
      <point x="65" y="62"/>
      <point x="65" y="145" type="curve" smooth="yes"/>
      <point x="65" y="454" type="line"/>
      <point x="14" y="454" type="line"/>
      <point x="14" y="142" type="line" smooth="yes"/>
      <point x="14" y="39"/>
      <point x="71" y="-9"/>
      <point x="172" y="-9" type="curve" smooth="yes"/>
      <point x="217" y="-9"/>
      <point x="267" y="8"/>
    </contour>
    <contour>
      <point x="280" y="-116" type="curve" smooth="yes"/>
      <point x="344" y="-3" type="line"/>
      <point x="344" y="5" type="line"/>
      <point x="304" y="3" type="line"/>
      <point x="304" y="-2" type="line"/>
      <point x="247" y="-103" type="line" smooth="yes"/>
      <point x="209" y="-168"/>
      <point x="254" y="-232"/>
      <point x="334" y="-209" type="curve" smooth="yes"/>
      <point x="351" y="-204"/>
      <point x="427" y="-178"/>
      <point x="429" y="-177" type="curve"/>
      <point x="413" y="-141" type="line"/>
      <point x="413" y="-141"/>
      <point x="374" y="-154"/>
      <point x="325" y="-171" type="curve" smooth="yes"/>
      <point x="280" y="-187"/>
      <point x="256" y="-158"/>
    </contour>
  </outline>
</glyph>
<glyph name="Rho" format="1">
  <advance width="426"/>
  <unicode hex="03A1"/>
  <outline>
    <contour>
      <point x="234" y="635" type="curve" smooth="yes"/>
      <point x="20" y="635" type="line"/>
      <point x="20" y="0" type="line"/>
      <point x="71" y="0" type="line"/>
      <point x="71" y="222" type="line"/>
      <point x="129" y="222"/>
      <point x="190" y="222"/>
      <point x="234" y="222" type="curve" smooth="yes"/>
      <point x="354" y="222"/>
      <point x="414" y="279"/>
      <point x="414" y="429" type="curve" smooth="yes"/>
      <point x="414" y="585"/>
      <point x="349" y="635"/>
    </contour>
    <contour>
      <point x="71" y="272" type="curve"/>
      <point x="71" y="586" type="line"/>
      <point x="238" y="586" type="line" smooth="yes"/>
      <point x="309" y="586"/>
      <point x="363" y="557"/>
      <point x="363" y="429" type="curve" smooth="yes"/>
      <point x="363" y="291"/>
      <point x="307" y="272"/>
      <point x="238" y="272" type="curve" smooth="yes"/>
      <point x="197" y="272"/>
      <point x="137" y="272"/>
    </contour>
  </outline>
</glyph>
<glyph name="Iotadieresis" format="1">
  <advance width="189"/>
  <unicode hex="03AA"/>
  <outline>
    <contour>
      <point x="88" y="0" type="line"/>
      <point x="139" y="0" type="line"/>
      <point x="139" y="635" type="line"/>
      <point x="27" y="635" type="line"/>
      <point x="27" y="590" type="line"/>
      <point x="88" y="588" type="line"/>
    </contour>
    <contour>
      <point x="160" y="758" type="curve" smooth="yes"/>
      <point x="143" y="758"/>
      <point x="129" y="744"/>
      <point x="129" y="727" type="curve" smooth="yes"/>
      <point x="129" y="711"/>
      <point x="143" y="697"/>
      <point x="160" y="697" type="curve" smooth="yes"/>
      <point x="176" y="697"/>
      <point x="190" y="711"/>
      <point x="190" y="727" type="curve" smooth="yes"/>
      <point x="190" y="744"/>
      <point x="176" y="758"/>
    </contour>
    <contour>
      <point x="16" y="758" type="curve" smooth="yes"/>
      <point x="-1" y="758"/>
      <point x="-14" y="744"/>
      <point x="-14" y="727" type="curve" smooth="yes"/>
      <point x="-14" y="711"/>
      <point x="-1" y="697"/>
      <point x="16" y="697" type="curve" smooth="yes"/>
      <point x="33" y="697"/>
      <point x="46" y="711"/>
      <point x="46" y="727" type="curve" smooth="yes"/>
      <point x="46" y="744"/>
      <point x="33" y="758"/>
    </contour>
  </outline>
</glyph>
<glyph name="omicron" format="1">
  <advance width="357"/>
  <unicode hex="03BF"/>
  <outline>
    <contour>
      <point x="345" y="167" type="curve" smooth="yes"/>
      <point x="345" y="286" type="line" smooth="yes"/>
      <point x="345" y="396"/>
      <point x="287" y="464"/>
      <point x="179" y="464" type="curve" smooth="yes"/>
      <point x="71" y="464"/>
      <point x="10" y="402"/>
      <point x="10" y="286" type="curve" smooth="yes"/>
      <point x="10" y="167" type="line" smooth="yes"/>
      <point x="10" y="68"/>
      <point x="68" y="-9"/>
      <point x="181" y="-9" type="curve" smooth="yes"/>
      <point x="293" y="-9"/>
      <point x="345" y="65"/>
    </contour>
    <contour>
      <point x="294" y="286" type="curve" smooth="yes"/>
      <point x="294" y="158" type="line" smooth="yes"/>
      <point x="294" y="84"/>
      <point x="256" y="36"/>
      <point x="181" y="36" type="curve" smooth="yes"/>
      <point x="107" y="36"/>
      <point x="61" y="85"/>
      <point x="61" y="158" type="curve" smooth="yes"/>
      <point x="61" y="286" type="line" smooth="yes"/>
      <point x="61" y="374"/>
      <point x="101" y="418"/>
      <point x="181" y="418" type="curve" smooth="yes"/>
      <point x="259" y="418"/>
      <point x="294" y="374"/>
    </contour>
  </outline>
</glyph>
<glyph name="rho" format="1">
  <advance width="363"/>
  <unicode hex="03C1"/>
  <outline>
    <contour>
      <point x="350" y="155" type="curve" smooth="yes"/>
      <point x="350" y="282" type="line" smooth="yes"/>
      <point x="350" y="392"/>
      <point x="292" y="460"/>
      <point x="184" y="460" type="curve" smooth="yes"/>
      <point x="76" y="460"/>
      <point x="15" y="397"/>
      <point x="15" y="282" type="curve" smooth="yes"/>
      <point x="15" y="-186" type="line"/>
      <point x="66" y="-198" type="line"/>
      <point x="66" y="51" type="line"/>
      <point x="87" y="13"/>
      <point x="140" y="-16"/>
      <point x="196" y="-16" type="curve" smooth="yes"/>
      <point x="296" y="-16"/>
      <point x="350" y="43"/>
    </contour>
    <contour>
      <point x="299" y="282" type="curve" smooth="yes"/>
      <point x="299" y="147" type="line" smooth="yes"/>
      <point x="299" y="71"/>
      <point x="261" y="32"/>
      <point x="192" y="32" type="curve" smooth="yes"/>
      <point x="123" y="32"/>
      <point x="66" y="75"/>
      <point x="66" y="152" type="curve" smooth="yes"/>
      <point x="66" y="282" type="line" smooth="yes"/>
      <point x="66" y="370"/>
      <point x="106" y="413"/>
      <point x="186" y="413" type="curve" smooth="yes"/>
      <point x="263" y="413"/>
      <point x="299" y="370"/>
    </contour>
  </outline>
</glyph>
<glyph name="upsilon" format="1">
  <advance width="363"/>
  <unicode hex="03C5"/>
  <outline>
    <contour>
      <point x="349" y="167" type="curve" smooth="yes"/>
      <point x="349" y="454" type="line"/>
      <point x="300" y="454" type="line"/>
      <point x="300" y="158" type="line" smooth="yes"/>
      <point x="300" y="84"/>
      <point x="261" y="36"/>
      <point x="185" y="36" type="curve" smooth="yes"/>
      <point x="112" y="36"/>
      <point x="65" y="85"/>
      <point x="65" y="158" type="curve" smooth="yes"/>
      <point x="65" y="454" type="line"/>
      <point x="13" y="454" type="line"/>
      <point x="13" y="167" type="line" smooth="yes"/>
      <point x="13" y="68"/>
      <point x="71" y="-9"/>
      <point x="184" y="-9" type="curve" smooth="yes"/>
      <point x="296" y="-9"/>
      <point x="349" y="65"/>
    </contour>
  </outline>
</glyph>
<glyph name="perthousand" format="1">
  <advance width="936"/>
  <unicode hex="2030"/>
  <outline>
    <contour>
      <point x="578" y="635" type="line"/>
      <point x="520" y="635" type="line"/>
      <point x="32" y="0" type="line"/>
      <point x="94" y="0" type="line"/>
    </contour>
    <contour>
      <point x="146" y="647" type="curve" smooth="yes"/>
      <point x="73" y="647"/>
      <point x="14" y="588"/>
      <point x="14" y="515" type="curve" smooth="yes"/>
      <point x="14" y="442"/>
      <point x="73" y="383"/>
      <point x="146" y="383" type="curve" smooth="yes"/>
      <point x="218" y="383"/>
      <point x="278" y="442"/>
      <point x="278" y="515" type="curve" smooth="yes"/>
      <point x="278" y="588"/>
      <point x="218" y="647"/>
    </contour>
    <contour>
      <point x="146" y="601" type="curve" smooth="yes"/>
      <point x="193" y="601"/>
      <point x="231" y="562"/>
      <point x="231" y="515" type="curve" smooth="yes"/>
      <point x="231" y="468"/>
      <point x="193" y="429"/>
      <point x="146" y="429" type="curve" smooth="yes"/>
      <point x="98" y="429"/>
      <point x="60" y="468"/>
      <point x="60" y="515" type="curve" smooth="yes"/>
      <point x="60" y="562"/>
      <point x="98" y="601"/>
    </contour>
    <contour>
      <point x="473" y="251" type="curve" smooth="yes"/>
      <point x="400" y="251"/>
      <point x="341" y="192"/>
      <point x="341" y="119" type="curve" smooth="yes"/>
      <point x="341" y="46"/>
      <point x="400" y="-13"/>
      <point x="473" y="-13" type="curve" smooth="yes"/>
      <point x="546" y="-13"/>
      <point x="605" y="46"/>
      <point x="605" y="119" type="curve" smooth="yes"/>
      <point x="605" y="192"/>
      <point x="546" y="251"/>
    </contour>
    <contour>
      <point x="473" y="205" type="curve" smooth="yes"/>
      <point x="520" y="205"/>
      <point x="559" y="167"/>
      <point x="559" y="119" type="curve" smooth="yes"/>
      <point x="559" y="72"/>
      <point x="520" y="34"/>
      <point x="473" y="34" type="curve" smooth="yes"/>
      <point x="426" y="34"/>
      <point x="387" y="72"/>
      <point x="387" y="119" type="curve" smooth="yes"/>
      <point x="387" y="167"/>
      <point x="426" y="205"/>
    </contour>
    <contour>
      <point x="787" y="251" type="curve" smooth="yes"/>
      <point x="714" y="251"/>
      <point x="655" y="192"/>
      <point x="655" y="119" type="curve" smooth="yes"/>
      <point x="655" y="46"/>
      <point x="714" y="-13"/>
      <point x="787" y="-13" type="curve" smooth="yes"/>
      <point x="860" y="-13"/>
      <point x="919" y="46"/>
      <point x="919" y="119" type="curve" smooth="yes"/>
      <point x="919" y="192"/>
      <point x="860" y="251"/>
    </contour>
    <contour>
      <point x="787" y="205" type="curve" smooth="yes"/>
      <point x="834" y="205"/>
      <point x="872" y="167"/>
      <point x="872" y="119" type="curve" smooth="yes"/>
      <point x="872" y="72"/>
      <point x="834" y="34"/>
      <point x="787" y="34" type="curve" smooth="yes"/>
      <point x="739" y="34"/>
      <point x="701" y="72"/>
      <point x="701" y="119" type="curve" smooth="yes"/>
      <point x="701" y="167"/>
      <point x="739" y="205"/>
    </contour>
  </outline>
</glyph>
<glyph name="guilsinglleft" format="1">
  <advance width="236"/>
  <unicode hex="2039"/>
  <outline>
    <contour>
      <point x="217" y="103" type="line"/>
      <point x="83" y="242" type="line"/>
      <point x="219" y="378" type="line"/>
      <point x="185" y="412" type="line"/>
      <point x="16" y="242" type="line"/>
      <point x="185" y="72" type="line"/>
    </contour>
  </outline>
</glyph>
